<mxfile host="Electron" modified="2023-12-11T08:27:23.989Z" agent="Mozilla/5.0 (X11; Linux x86_64) AppleWebKit/537.36 (KHTML, like Gecko) draw.io/22.1.2 Chrome/114.0.5735.289 Electron/25.9.4 Safari/537.36" etag="FM5zx9MiX8mStJoGfnag" version="22.1.2" type="device">
  <diagram name="Page-1" id="SaTEGbs1m5mJN6aaeeAi">
    <mxGraphModel dx="461" dy="497" grid="1" gridSize="10" guides="1" tooltips="1" connect="1" arrows="1" fold="1" page="1" pageScale="1" pageWidth="827" pageHeight="1169" math="0" shadow="0">
      <root>
        <mxCell id="0" />
        <mxCell id="1" parent="0" />
        <mxCell id="s4k6OT8H9g1iacchqTic-1" value="sd Lager" style="shape=umlFrame;whiteSpace=wrap;html=1;pointerEvents=0;width=60;height=30;" vertex="1" parent="1">
          <mxGeometry x="20" y="20" width="430" height="270" as="geometry" />
        </mxCell>
        <mxCell id="s4k6OT8H9g1iacchqTic-2" value="Ich" style="html=1;whiteSpace=wrap;" vertex="1" parent="1">
          <mxGeometry x="110" y="40" width="40" height="30" as="geometry" />
        </mxCell>
        <mxCell id="s4k6OT8H9g1iacchqTic-3" value="Palette" style="html=1;whiteSpace=wrap;" vertex="1" parent="1">
          <mxGeometry x="225" y="40" width="60" height="30" as="geometry" />
        </mxCell>
        <mxCell id="s4k6OT8H9g1iacchqTic-4" value="" style="html=1;points=[[0,0,0,0,5],[0,1,0,0,-5],[1,0,0,0,5],[1,1,0,0,-5]];perimeter=orthogonalPerimeter;outlineConnect=0;targetShapes=umlLifeline;portConstraint=eastwest;newEdgeStyle={&quot;curved&quot;:0,&quot;rounded&quot;:0};" vertex="1" parent="1">
          <mxGeometry x="250" y="100" width="10" height="50" as="geometry" />
        </mxCell>
        <mxCell id="s4k6OT8H9g1iacchqTic-5" value="nach Klimabe-&lt;br&gt;dingungen fragen" style="html=1;verticalAlign=bottom;endArrow=block;curved=0;rounded=0;entryX=0;entryY=0;entryDx=0;entryDy=5;exitX=1;exitY=0;exitDx=0;exitDy=5;exitPerimeter=0;" edge="1" target="s4k6OT8H9g1iacchqTic-4" parent="1" source="s4k6OT8H9g1iacchqTic-7">
          <mxGeometry relative="1" as="geometry">
            <mxPoint x="170" y="105" as="sourcePoint" />
          </mxGeometry>
        </mxCell>
        <mxCell id="s4k6OT8H9g1iacchqTic-6" value="nach Klimabe-&lt;br&gt;dingungen fragen" style="html=1;verticalAlign=bottom;endArrow=open;dashed=1;endSize=8;curved=0;rounded=0;exitX=0;exitY=1;exitDx=0;exitDy=-5;" edge="1" source="s4k6OT8H9g1iacchqTic-4" parent="1" target="s4k6OT8H9g1iacchqTic-7">
          <mxGeometry relative="1" as="geometry">
            <mxPoint x="170" y="175" as="targetPoint" />
          </mxGeometry>
        </mxCell>
        <mxCell id="s4k6OT8H9g1iacchqTic-7" value="" style="html=1;points=[[0,0,0,0,5],[0,1,0,0,-5],[1,0,0,0,5],[1,1,0,0,-5]];perimeter=orthogonalPerimeter;outlineConnect=0;targetShapes=umlLifeline;portConstraint=eastwest;newEdgeStyle={&quot;curved&quot;:0,&quot;rounded&quot;:0};" vertex="1" parent="1">
          <mxGeometry x="125" y="100" width="10" height="50" as="geometry" />
        </mxCell>
        <mxCell id="s4k6OT8H9g1iacchqTic-8" style="edgeStyle=orthogonalEdgeStyle;rounded=0;orthogonalLoop=1;jettySize=auto;html=1;exitX=0.5;exitY=1;exitDx=0;exitDy=0;" edge="1" parent="1" source="s4k6OT8H9g1iacchqTic-2" target="s4k6OT8H9g1iacchqTic-2">
          <mxGeometry relative="1" as="geometry" />
        </mxCell>
        <mxCell id="s4k6OT8H9g1iacchqTic-9" value="" style="endArrow=none;dashed=1;html=1;rounded=0;" edge="1" parent="1" source="s4k6OT8H9g1iacchqTic-7" target="s4k6OT8H9g1iacchqTic-2">
          <mxGeometry width="50" height="50" relative="1" as="geometry">
            <mxPoint x="50" y="180" as="sourcePoint" />
            <mxPoint x="100" y="130" as="targetPoint" />
          </mxGeometry>
        </mxCell>
        <mxCell id="s4k6OT8H9g1iacchqTic-10" value="" style="endArrow=none;dashed=1;html=1;rounded=0;" edge="1" parent="1" source="s4k6OT8H9g1iacchqTic-4" target="s4k6OT8H9g1iacchqTic-3">
          <mxGeometry width="50" height="50" relative="1" as="geometry">
            <mxPoint x="190" y="270" as="sourcePoint" />
            <mxPoint x="240" y="220" as="targetPoint" />
          </mxGeometry>
        </mxCell>
      </root>
    </mxGraphModel>
  </diagram>
</mxfile>
